<?xml version="1.0" standalone="no"?>
<!DOCTYPE svg PUBLIC "-//W3C//DTD SVG 20010904//EN"
 "http://www.w3.org/TR/2001/REC-SVG-20010904/DTD/svg10.dtd">
<svg version="1.0" xmlns="http://www.w3.org/2000/svg"
 width="200.000000pt" height="218.000000pt" viewBox="0 0 200.000000 218.000000"
 preserveAspectRatio="xMidYMid meet">

<g color="blue" transform="translate(0.000000,218.000000) scale(0.100000,-0.100000)"
fill="#000000" stroke="none">
<path d="M930 2164 c-70 -14 -162 -50 -226 -90 -76 -47 -181 -150 -228 -225
-26 -41 -36 -48 -80 -58 -28 -6 -89 -30 -135 -52 -169 -82 -251 -210 -251
-394 0 -237 138 -400 381 -451 63 -13 161 -15 664 -12 572 4 592 5 670 26 108
30 180 80 217 151 24 45 28 65 28 130 0 220 -131 321 -416 321 l-81 0 -6 65
c-7 77 -29 118 -77 148 -29 18 -54 22 -142 26 l-108 3 0 -36 0 -36 90 0 c134
0 170 -28 170 -131 l0 -39 -105 0 -105 0 0 -30 0 -29 103 -3 102 -3 0 -62 c0
-51 -4 -66 -24 -87 -23 -25 -30 -26 -128 -26 l-103 0 0 -35 0 -35 105 0 c112
0 142 8 182 52 26 28 43 87 43 152 l0 49 113 -5 c168 -8 257 -52 303 -152 65
-140 6 -254 -165 -319 -55 -21 -70 -22 -675 -25 -547 -2 -625 -1 -675 14 -84
24 -147 62 -201 121 -67 74 -92 143 -93 258 -1 78 3 98 27 152 67 147 256 251
441 241 66 -3 73 -1 89 20 10 13 16 25 14 28 -3 2 -32 7 -66 10 -34 4 -62 10
-62 14 0 20 96 134 146 174 125 98 232 130 409 124 105 -4 130 -9 200 -36 44
-18 107 -52 140 -77 68 -50 152 -146 187 -211 19 -36 28 -44 51 -44 l27 0 -15
38 c-67 160 -219 297 -395 356 -70 23 -106 29 -200 32 -63 1 -126 0 -140 -2z"/>
<path d="M830 1740 c-58 -12 -87 -27 -131 -67 -145 -130 -110 -366 66 -449 44
-21 65 -24 173 -24 l122 0 0 30 0 30 -79 0 c-149 0 -211 23 -268 97 -20 26
-28 50 -31 93 -5 74 9 118 55 164 48 48 112 66 230 66 l94 0 -3 33 -3 32 -95
2 c-52 0 -111 -2 -130 -7z"/>
<path d="M60 665 l0 -25 265 0 265 0 0 25 0 25 -265 0 -265 0 0 -25z"/>
<path d="M952 674 c-20 -14 -22 -23 -22 -110 0 -127 4 -134 85 -134 58 0 65
-2 65 -20 0 -18 -7 -20 -75 -20 -73 0 -75 -1 -75 -25 0 -24 2 -25 75 -25 l75
0 0 -80 c0 -79 0 -80 25 -80 25 0 25 1 25 80 l0 80 80 0 c79 0 80 0 80 25 0
25 -1 25 -80 25 -73 0 -80 2 -80 20 0 18 7 20 65 20 81 0 85 7 85 134 0 126 0
126 -175 126 -102 0 -135 -3 -153 -16z m128 -64 c0 -29 -1 -30 -50 -30 -46 0
-50 2 -50 24 0 28 11 34 63 35 35 1 37 -1 37 -29z m148 -2 c3 -27 2 -28 -47
-28 -50 0 -51 1 -51 31 0 30 1 30 48 27 43 -3 47 -5 50 -30z m-148 -104 c0
-24 -2 -25 -47 -22 -41 3 -48 6 -51 26 -3 20 0 22 47 22 48 0 51 -2 51 -26z
m148 4 c-3 -20 -10 -23 -50 -26 -46 -3 -48 -2 -48 22 0 24 3 26 51 26 47 0 50
-2 47 -22z"/>
<path d="M1470 667 c0 -16 -9 -28 -25 -35 -20 -9 -25 -19 -25 -47 0 -30 3 -35
24 -35 15 0 26 7 29 20 5 19 14 20 226 20 214 0 221 -1 221 -20 0 -15 7 -20
25 -20 22 0 25 4 25 35 0 28 -5 38 -25 47 -16 7 -25 19 -25 35 0 18 -5 23 -25
23 -20 0 -25 -5 -25 -25 0 -24 -2 -25 -75 -25 -73 0 -75 1 -75 25 0 20 -5 25
-25 25 -20 0 -25 -5 -25 -25 0 -24 -2 -25 -75 -25 -73 0 -75 1 -75 25 0 20 -5
25 -25 25 -20 0 -25 -5 -25 -23z"/>
<path d="M740 655 c0 -25 2 -26 58 -23 50 3 57 6 60 26 3 21 0 22 -57 22 -59
0 -61 -1 -61 -25z"/>
<path d="M50 525 c0 -21 5 -25 31 -25 27 0 31 -3 27 -22 -3 -13 -16 -74 -29
-136 l-24 -114 28 -24 c28 -24 30 -24 246 -24 198 0 221 2 242 18 26 22 27 63
6 147 -12 44 -17 50 -41 53 -23 3 -27 0 -23 -12 3 -8 12 -43 19 -76 10 -52 10
-63 -2 -70 -8 -6 -99 -10 -202 -10 -232 0 -224 -5 -197 117 11 48 23 102 28
118 l7 30 309 3 c240 2 310 -1 317 -10 4 -7 8 -74 8 -148 0 -92 4 -140 12
-148 7 -7 40 -12 78 -12 80 0 100 16 107 85 5 43 5 45 -21 45 -21 0 -26 -5
-26 -24 0 -47 -10 -56 -56 -56 l-44 0 0 138 c0 108 -3 142 -16 160 l-15 22
-385 0 -384 0 0 -25z"/>
<path d="M1452 518 c-14 -14 -16 -97 -2 -118 7 -11 35 -16 115 -18 95 -4 105
-6 105 -23 0 -18 -9 -19 -120 -19 l-120 0 0 -25 0 -25 120 0 120 0 0 -30 0
-30 -174 0 c-96 0 -186 4 -200 9 -17 7 -26 19 -28 38 -2 22 -9 29 -29 31 -25
3 -26 2 -19 -42 14 -90 -5 -86 397 -86 l353 0 0 25 0 25 -125 0 -125 0 0 30 0
30 125 0 125 0 0 25 0 25 -125 0 c-118 0 -125 1 -125 20 0 19 7 20 100 20 89
0 102 2 121 21 17 17 20 30 16 66 -3 25 -11 49 -18 54 -23 14 -473 11 -487 -3z
m453 -48 c4 -6 1 -18 -6 -26 -10 -12 -45 -14 -208 -12 -195 3 -196 3 -199 26
l-3 22 205 0 c131 0 207 -4 211 -10z"/>
<path d="M65 71 c-9 -29 4 -63 23 -59 8 2 17 10 19 18 4 12 3 13 -5 1 -12 -17
-32 -6 -32 19 0 25 20 36 32 19 8 -12 9 -11 5 1 -6 23 -34 24 -42 1z"/>
<path d="M350 81 c0 -6 7 -8 16 -4 14 5 16 0 12 -30 -2 -21 0 -37 5 -37 4 0 7
17 5 37 -2 27 -8 39 -20 41 -10 2 -18 -1 -18 -7z"/>
<path d="M492 53 c-2 -37 1 -43 18 -43 17 0 20 6 18 43 l-1 42 -4 -37 c-2 -21
-8 -38 -13 -38 -5 0 -11 17 -13 38 l-4 37 -1 -42z"/>
<path d="M632 48 l1 -43 4 38 c2 20 8 37 12 37 13 0 19 -36 9 -54 -5 -10 -5
-16 0 -16 14 0 20 33 11 58 -5 12 -15 22 -24 22 -11 0 -15 -10 -13 -42z"/>
<path d="M827 83 c-4 -3 -7 -21 -7 -40 0 -26 4 -33 20 -33 13 0 20 6 19 18 0
10 -3 12 -6 5 -9 -24 -23 -13 -23 18 0 24 4 30 15 25 8 -3 15 -1 15 4 0 11
-23 13 -33 3z"/>
<path d="M963 50 c0 -25 2 -35 4 -22 2 12 2 32 0 45 -2 12 -4 2 -4 -23z"/>
<path d="M1117 83 c-2 -4 -8 -24 -11 -43 -5 -24 -4 -31 3 -21 8 12 12 12 25 2
13 -11 14 -8 4 26 -12 43 -14 48 -21 36z"/>
<path d="M1245 79 c-4 -6 2 -21 14 -33 12 -12 19 -26 16 -29 -3 -4 1 -2 8 4 9
8 7 14 -10 26 -26 17 -31 38 -8 29 8 -3 15 -1 15 4 0 13 -27 13 -35 -1z"/>
<path d="M1384 78 c-4 -6 3 -19 15 -29 14 -11 20 -24 15 -31 -5 -9 -3 -9 7 0
12 12 11 16 -8 29 -28 19 -30 37 -3 30 11 -3 18 -1 14 4 -7 13 -31 11 -40 -3z"/>
<path d="M1521 48 c1 -24 3 -35 6 -25 6 21 12 22 27 2 9 -12 11 -8 11 22 0 32
-4 39 -23 41 -20 3 -22 0 -21 -40z m37 21 c-5 -14 -21 -14 -26 0 -2 6 4 11 13
11 9 0 15 -5 13 -11z"/>
<path d="M1664 66 c-3 -13 -1 -33 4 -43 9 -14 10 -12 9 16 -1 21 3 36 12 39
10 3 12 -4 9 -32 -2 -21 0 -32 5 -27 5 5 7 21 5 37 -4 38 -35 45 -44 10z"/>
<path d="M1811 73 c0 -10 3 -13 6 -5 10 26 25 11 21 -23 -2 -19 0 -35 5 -35 4
0 7 17 5 37 -2 27 -8 39 -20 41 -12 2 -18 -3 -17 -15z"/>
<path d="M1951 78 c0 -9 4 -29 10 -45 l12 -28 7 25 c5 14 8 34 8 45 0 16 -1
17 -5 3 -2 -10 -8 -18 -13 -18 -5 0 -11 8 -13 18 -4 15 -5 15 -6 0z"/>
<path d="M1240 20 c0 -5 5 -10 11 -10 5 0 7 5 4 10 -3 6 -8 10 -11 10 -2 0 -4
-4 -4 -10z"/>
</g>
</svg>
