<svg version="1.1" id="Layer_1" xmlns="http://www.w3.org/2000/svg" xmlns:xlink="http://www.w3.org/1999/xlink" x="0px" y="0px"
	 width="100%" viewBox="0 0 200 218" enable-background="new 0 0 200 218" xml:space="preserve">
<path fill="#FCFDFE" opacity="1.000000" stroke="none" 
	d="
M21.232491,218.737335 
	C15.516307,219.000000 10.024769,218.825714 4.552162,219.072021 
	C1.726653,219.199173 0.856513,218.718002 0.898698,215.568314 
	C1.116766,199.286316 1.000000,182.999863 1.000000,166.714951 
	C1.000000,141.789078 1.000000,116.863197 1.000000,91.468658 
	C3.704660,91.351135 3.689383,93.754967 4.021861,95.510445 
	C8.402482,118.639999 30.758730,129.512466 48.880947,129.557724 
	C84.713104,129.647202 120.546074,129.682724 156.377686,129.515289 
	C165.256165,129.473801 173.927002,127.702744 182.070267,123.884346 
	C192.341339,119.068207 197.632477,110.867523 197.446060,99.669022 
	C197.252441,88.036560 192.488083,78.678711 181.617050,73.283989 
	C176.472458,70.730988 170.944611,69.537567 165.196671,69.429832 
	C162.863876,69.386101 160.529953,69.440331 158.197021,69.410721 
	C149.190704,69.296410 146.154297,70.837669 146.289215,58.878880 
	C146.367767,51.917820 140.890442,46.690334 134.068039,45.726734 
	C129.108124,45.026199 124.083900,45.400269 119.088783,45.511272 
	C117.568413,45.545059 115.913620,45.847519 115.843834,47.856026 
	C115.762650,50.192272 117.591789,50.426395 119.294060,50.508877 
	C123.289970,50.702480 127.295174,50.461647 131.291000,50.629585 
	C139.592880,50.978489 144.494904,59.468288 140.805908,66.963234 
	C139.827209,68.951668 138.062622,69.227783 136.205231,69.331940 
	C132.542999,69.537315 128.870285,69.279320 125.209770,69.488342 
	C123.752884,69.571526 121.912941,69.588348 122.060272,71.763634 
	C122.185234,73.608604 123.873375,73.465126 125.143471,73.525314 
	C128.805603,73.698891 132.474197,73.548897 136.140625,73.642601 
	C139.620056,73.731514 141.119904,75.447769 141.394180,78.906754 
	C142.213074,89.234055 138.546890,93.324120 128.106979,93.415245 
	C124.941475,93.442879 121.771271,93.277931 118.611824,93.534828 
	C117.231560,93.647057 115.901779,94.026817 115.817322,95.773964 
	C115.721115,97.763893 117.100723,98.424294 118.709702,98.460258 
	C123.866806,98.575493 129.069672,99.113220 134.166031,98.075668 
	C141.748840,96.531921 146.183456,91.073799 146.555237,83.240364 
	C146.634201,81.576302 146.587280,79.909241 146.695724,78.243790 
	C146.874832,75.492805 148.246216,73.797836 151.040359,73.761230 
	C159.010406,73.656799 167.095016,72.548187 174.824997,75.393326 
	C183.616852,78.629272 189.897385,84.436005 192.369843,93.758774 
	C194.821365,103.002502 192.097595,110.974579 184.327072,116.681129 
	C176.248016,122.614281 166.807358,125.182678 157.068695,125.274567 
	C121.072578,125.614212 85.071083,125.553551 49.073200,125.344635 
	C31.126297,125.240479 14.621362,114.221611 9.766527,98.738770 
	C3.181156,77.736954 9.627411,57.852482 32.482258,48.381397 
	C40.671082,44.987938 49.216667,42.642414 58.300507,44.051029 
	C59.292587,44.204868 60.307514,44.263805 61.271248,43.930260 
	C62.230755,43.598175 63.275093,43.106621 63.241405,41.960938 
	C63.202549,40.639099 61.936382,40.726051 61.000725,40.519669 
	C51.964909,38.526566 51.443485,36.967865 57.334385,29.563887 
	C84.370514,-4.416480 137.169052,-0.353694 160.670380,37.459583 
	C161.934875,39.494156 162.831757,43.852627 165.617523,42.237011 
	C167.623184,41.073826 164.702866,37.531761 163.394852,35.388737 
	C152.605438,17.711329 136.890884,7.231616 116.514824,3.663406 
	C114.597908,3.327719 112.444489,3.595020 110.993034,1.415899 
	C139.458527,1.000000 167.918228,1.125880 196.374359,0.865442 
	C200.685013,0.825990 201.103500,2.059169 201.096161,5.861954 
	C200.963989,74.262001 201.000000,142.662384 201.000000,211.531342 
	C200.516144,212.499542 199.922760,212.749329 198.910278,212.736389 
	C197.953659,212.769577 197.456116,211.604019 196.741730,212.755005 
	C196.779922,213.202652 196.806229,213.385178 196.858871,213.850616 
	C196.890167,214.521652 196.858627,214.907013 196.728607,215.579712 
	C196.474976,216.437454 196.247086,216.989609 195.911896,217.822067 
	C195.666351,218.254761 195.543457,218.412872 195.210297,218.785492 
	C183.312439,219.000000 171.624878,219.000000 159.468658,219.000000 
	C158.539581,218.557053 158.014801,218.335632 157.185120,218.763214 
	C156.555557,219.000000 156.111099,219.000000 155.333328,219.000000 
	C154.467926,218.447159 154.212723,217.788025 154.313629,216.666229 
	C154.489639,216.095947 154.591965,215.879883 154.895752,215.372330 
	C155.789734,214.049011 156.850342,213.083923 155.517715,211.427353 
	C153.264084,213.411362 154.727844,216.400681 153.230545,218.741699 
	C140.979111,219.000000 128.958206,219.000000 116.468658,219.000000 
	C115.158371,217.791916 114.642113,216.350555 113.206894,215.183594 
	C112.648323,214.588715 113.116875,214.103241 112.808777,213.730835 
	C112.759888,214.024979 112.745384,214.321350 112.942535,214.877365 
	C114.054321,216.069550 115.024918,216.980606 115.127151,218.689636 
	C114.250000,219.000000 113.500000,219.000000 112.375000,219.000000 
	C111.575638,218.483856 111.057182,218.313583 110.211212,218.785416 
	C107.299988,219.000000 104.599968,219.000000 101.449982,219.000000 
	C100.223412,217.975342 98.813339,218.099762 97.748749,216.989563 
	C97.424690,215.139511 97.605675,213.577011 97.554939,213.001953 
	C97.738617,213.689545 97.319580,215.377747 97.603409,217.387360 
	C97.589188,217.972366 97.519104,218.202911 97.224510,218.716736 
	C73.645775,219.000000 50.291542,219.000000 26.468658,219.000000 
	C24.644142,217.717880 22.086086,217.707108 21.974586,215.114594 
	C22.001791,216.292374 22.199503,217.449127 21.232491,218.737335 
z"/>
<path fill="#0875B8" opacity="1.000000" stroke="none" 
	d="
M110.666672,1.000000 
	C115.230782,2.972208 119.961975,2.660694 124.358093,3.977547 
	C145.032776,10.170643 160.136124,22.586336 168.291855,42.879097 
	C168.527237,43.464775 168.637100,44.100891 168.809204,44.726978 
	C164.696350,46.404774 162.830368,44.536324 160.979889,41.084274 
	C140.220032,2.357133 87.077728,-3.988996 59.511322,28.865519 
	C59.297112,29.120817 59.054592,29.357481 58.872807,29.634071 
	C57.234661,32.126549 53.966190,34.921082 54.350121,37.056259 
	C54.970394,40.505840 59.375454,38.211922 61.980343,39.181118 
	C63.371700,39.698795 64.884109,39.891109 66.489174,40.264530 
	C64.588600,44.293667 62.535789,46.334358 57.140182,45.459541 
	C40.353249,42.737797 18.771383,53.996262 12.057676,68.089401 
	C1.625037,89.989159 13.460719,115.274094 37.311954,121.991035 
	C41.975613,123.304398 46.715084,124.023651 51.598579,124.016602 
	C86.260185,123.966560 120.921906,123.977936 155.583572,123.999405 
	C163.026855,124.004013 170.147537,122.414871 176.913864,119.474640 
	C184.931564,115.990646 191.462662,110.892258 191.867722,101.271530 
	C192.299927,91.005829 187.650024,83.317848 178.669312,78.365311 
	C169.570969,73.347885 159.551163,74.837074 149.798462,74.515045 
	C148.204041,74.462395 147.939072,75.550018 147.943359,76.829361 
	C147.948959,78.495728 147.947144,80.162231 147.933136,81.828537 
	C147.836151,93.370354 141.552948,99.644554 129.914413,99.788078 
	C126.082130,99.835342 122.236755,99.623314 118.419922,99.873604 
	C115.210419,100.084061 114.078163,99.138573 114.086464,95.741211 
	C114.094788,92.330429 115.622833,91.968491 118.347504,92.072891 
	C122.340904,92.225922 126.345139,92.136917 130.344147,92.094299 
	C137.465439,92.018410 140.145844,89.276703 140.257141,82.027496 
	C140.259705,81.860893 140.259903,81.694176 140.257355,81.527580 
	C140.132004,73.301247 141.139175,74.608475 133.493591,74.549614 
	C130.161240,74.523972 126.818848,74.450333 123.498299,74.665375 
	C120.735825,74.844261 119.705917,74.004768 119.679436,71.071075 
	C119.652817,68.121101 121.050491,67.901421 123.324959,67.949036 
	C127.988892,68.046669 132.658142,67.900337 137.321503,68.010872 
	C139.403793,68.060226 140.133575,67.442474 140.300964,65.231346 
	C141.093124,54.766701 138.321640,51.652798 127.817154,51.653412 
	C124.650955,51.653599 121.471001,51.484932 118.322380,51.723740 
	C115.074036,51.970116 114.067070,50.878471 114.037270,47.534851 
	C114.005386,43.956993 115.779060,43.915703 118.365669,43.991528 
	C122.361588,44.108665 126.363922,43.983559 130.362961,44.021561 
	C141.350357,44.125969 147.735641,50.451900 147.920654,61.374878 
	C148.032486,67.976929 148.032562,67.997505 154.459747,67.972458 
	C162.124329,67.942589 169.788254,67.771858 177.253250,70.041847 
	C190.857056,74.178558 198.352539,84.410042 198.830078,99.610878 
	C199.223358,112.129623 192.577713,121.560791 179.720474,126.520828 
	C171.711105,129.610657 163.315536,130.942429 154.786819,130.971802 
	C119.792435,131.092316 84.791862,131.448990 49.805050,130.935867 
	C30.474234,130.652359 14.510011,123.204971 5.505461,104.729805 
	C3.438099,100.488091 2.784153,95.852386 1.346547,91.168602 
	C1.000000,90.250000 1.000000,89.500000 1.000000,88.375000 
	C2.029205,85.920731 1.329160,83.721596 1.222535,81.289505 
	C1.000000,80.250000 1.000000,79.500000 1.000000,78.375000 
	C3.456586,55.477665 18.422087,44.772163 38.274940,38.971401 
	C42.528229,37.728642 45.564640,35.895817 48.011528,32.062378 
	C54.665688,21.637594 63.533424,13.485167 74.549744,7.644718 
	C81.436859,3.993420 88.562675,1.565464 96.699753,1.224401 
	C98.388893,1.000000 99.777779,1.000000 101.583336,1.000000 
	C104.079269,2.029205 106.278404,1.329160 108.710495,1.222535 
	C109.444443,1.000000 109.888893,1.000000 110.666672,1.000000 
z"/>
<path fill="#FEFEFF" opacity="1.000000" stroke="none" 
	d="
M96.531342,1.000000 
	C94.681969,3.268604 91.488548,2.725993 88.719688,3.494593 
	C70.814301,8.464889 57.522869,19.422461 47.778770,34.924889 
	C46.163925,37.494038 44.389091,38.747986 41.376713,39.500446 
	C27.138613,43.056995 14.536571,49.264484 6.805806,62.670013 
	C4.100853,67.360535 2.917740,72.524971 1.356099,77.850876 
	C1.000000,53.562107 1.077582,29.123672 0.907165,4.686969 
	C0.884471,1.432793 1.809540,0.917899 4.794935,0.929253 
	C35.217167,1.044957 65.640007,1.000000 96.531342,1.000000 
z"/>
<path fill="#74716F" opacity="1.000000" stroke="none" 
	d="
M153.333328,219.000000 
	C152.983032,217.188110 152.868027,215.369965 152.983200,213.566513 
	C153.061447,212.340897 152.280838,210.814774 153.720016,209.945389 
	C154.941055,209.207748 155.690521,210.342422 156.661530,210.869858 
	C158.555405,211.898529 157.968414,213.055328 157.237061,214.392059 
	C157.006714,214.813049 156.921082,215.313202 156.434265,215.849731 
	C156.099289,215.922333 155.709061,215.636734 155.709061,215.636734 
	C155.709061,215.636734 155.227020,215.675369 154.990112,215.725418 
	C154.684799,216.612625 154.616379,217.449799 154.773987,218.643478 
	C154.555557,219.000000 154.111099,219.000000 153.333328,219.000000 
z"/>
<path fill="#918F8D" opacity="1.000000" stroke="none" 
	d="
M21.416666,219.000000 
	C21.174288,216.070160 20.497972,213.052780 21.721594,209.088577 
	C23.722641,212.666504 21.805374,216.963715 25.957039,218.615479 
	C24.611111,219.000000 23.222221,219.000000 21.416666,219.000000 
z"/>
<path fill="#918F8D" opacity="1.000000" stroke="none" 
	d="
M197.806000,211.765091 
	C198.826126,211.517883 199.588699,211.537003 200.675629,211.778046 
	C201.000000,213.714355 201.000000,215.428711 201.000000,217.571533 
	C200.624283,218.354584 200.176056,218.494751 199.308990,218.352386 
	C198.778519,218.077728 198.604752,217.901978 198.259811,217.397369 
	C197.692352,215.899261 197.467041,214.691803 197.299530,213.104431 
	C197.391998,212.499985 197.470215,212.265701 197.806000,211.765091 
z"/>
<path fill="#817E7C" opacity="1.000000" stroke="none" 
	d="
M113.297470,215.107117 
	C114.856522,215.223267 116.206734,215.976700 115.973801,218.618835 
	C116.000000,219.000000 115.500000,219.000000 115.250000,219.000000 
	C114.556076,217.733826 114.112152,216.467651 113.297470,215.107117 
z"/>
<path fill="#8DC0DF" opacity="1.000000" stroke="none" 
	d="
M1.000000,81.437500 
	C2.763529,83.042679 1.840287,85.357941 1.334635,87.798447 
	C1.000000,85.958336 1.000000,83.916664 1.000000,81.437500 
z"/>
<path fill="#8DC0DF" opacity="1.000000" stroke="none" 
	d="
M108.562500,1.000000 
	C106.976784,2.920121 104.646271,1.764964 102.210220,1.328732 
	C104.041664,1.000000 106.083336,1.000000 108.562500,1.000000 
z"/>
<path fill="#9B9998" opacity="1.000000" stroke="none" 
	d="
M97.845551,217.007111 
	C99.125969,217.319016 100.612823,216.722748 101.048767,218.646790 
	C99.933327,219.000000 98.866661,219.000000 97.399994,219.000000 
	C97.000000,219.000000 96.906593,218.509781 96.944946,218.263214 
	C97.242607,217.751190 97.440796,217.445282 97.845551,217.007111 
z"/>
<path fill="#BAB9B8" opacity="1.000000" stroke="none" 
	d="
M198.598923,217.565552 
	C199.381973,217.821564 199.843933,217.875519 200.652954,217.964737 
	C199.748611,220.411942 197.596176,218.317657 195.499481,219.000000 
	C195.069275,218.793854 195.138550,218.587708 195.315430,218.073593 
	C196.291351,217.040390 197.256332,217.001282 198.598923,217.565552 
z"/>
<path fill="#E9E9E8" opacity="1.000000" stroke="none" 
	d="
M110.333328,219.000000 
	C110.235283,218.452805 110.329262,217.632538 110.738190,217.420914 
	C111.389130,217.084076 111.820740,217.692993 111.987701,218.683594 
	C111.555557,219.000000 111.111107,219.000000 110.333328,219.000000 
z"/>
<path fill="#D3D2D1" opacity="1.000000" stroke="none" 
	d="
M157.333328,219.000000 
	C156.846649,218.353043 155.925964,217.522110 157.068832,217.125397 
	C157.965759,216.814041 158.255417,217.879776 158.846313,218.738342 
	C158.555557,219.000000 158.111099,219.000000 157.333328,219.000000 
z"/>
<path fill="#0F79BA" opacity="1.000000" stroke="none" 
	d="
M193.652802,165.479584 
	C198.529266,168.950348 197.444168,173.564529 196.419510,177.590302 
	C195.463486,181.346466 191.695236,181.109528 188.458572,181.049988 
	C184.963196,180.985703 181.456375,180.886993 177.973495,181.105392 
	C176.468475,181.199768 173.770706,179.766327 173.711563,182.798004 
	C173.645111,186.204056 176.588837,184.772400 178.233841,184.825714 
	C183.722687,185.003616 189.221985,184.958923 194.714890,184.863190 
	C196.883774,184.825394 198.054398,185.200104 198.029266,187.813187 
	C198.003632,190.479980 196.670670,190.741348 194.583115,190.718536 
	C188.756210,190.654846 182.928070,190.715591 177.100586,190.691223 
	C175.164795,190.683121 173.503708,190.620255 173.492004,193.432480 
	C173.479507,196.435226 175.412445,195.964630 177.190796,195.968567 
	C183.351379,195.982239 189.513107,196.042160 195.672012,195.940262 
	C197.900711,195.903381 199.025696,196.389450 198.932144,198.948181 
	C198.850586,201.177765 197.946472,201.779053 195.894867,201.771393 
	C174.583786,201.691757 153.270660,201.813293 131.962311,201.544891 
	C124.896049,201.455902 121.936409,197.372589 122.173790,189.894409 
	C122.223083,188.341431 122.733467,187.733322 124.156067,187.841599 
	C125.664101,187.956390 127.916779,187.114151 127.871765,189.796631 
	C127.789162,194.719360 131.249924,195.657120 134.835846,195.748932 
	C144.985794,196.008759 155.144943,195.893509 165.299774,195.995132 
	C167.199509,196.014130 167.949432,195.374985 167.921356,193.408875 
	C167.894699,191.541824 167.309189,190.672775 165.354355,190.688797 
	C159.360703,190.737961 153.366257,190.681305 147.372314,190.707703 
	C145.292221,190.716858 143.436829,190.903870 143.363647,187.798676 
	C143.288727,184.620743 145.170883,184.870010 147.242126,184.881531 
	C153.069550,184.913925 158.897415,184.913193 164.724777,184.874985 
	C166.128174,184.865799 167.917252,185.314835 167.855331,182.867615 
	C167.791840,180.358368 165.896729,181.100571 164.586929,181.067093 
	C161.092636,180.977768 157.593155,181.098267 154.098434,181.017715 
	C150.865387,180.943222 146.818863,182.056137 145.260193,178.179733 
	C143.703598,174.308411 143.427856,170.046539 146.732239,166.134247 
	C148.652802,163.920334 150.913116,163.495682 153.296478,163.473785 
	C164.762970,163.368484 176.229843,163.362000 187.696152,163.481873 
	C189.693024,163.502731 191.704254,163.673523 193.652802,165.479584 
z"/>
<path fill="#0A77B9" opacity="1.000000" stroke="none" 
	d="
M58.212193,181.610107 
	C59.097572,185.595856 60.037022,189.141617 60.637886,192.743835 
	C61.423775,197.455261 59.089615,200.838852 54.317757,200.933044 
	C40.839043,201.199036 27.347572,201.260666 13.870698,200.965652 
	C8.305186,200.843811 5.982269,197.107605 7.126549,191.144867 
	C8.316304,184.945206 9.700904,178.774612 11.266010,172.659317 
	C11.908362,170.149506 11.845750,168.792252 8.809730,169.207977 
	C6.390181,169.539291 5.648052,168.460571 5.709402,166.089951 
	C5.779704,163.373352 7.576658,163.832489 9.163293,163.831009 
	C32.474701,163.809204 55.786285,163.758102 79.097435,163.833405 
	C84.702324,163.851501 85.957466,165.340363 86.000130,171.170135 
	C86.051315,178.163315 86.047859,185.157394 85.994453,192.150528 
	C85.977280,194.399399 86.263649,196.266434 89.144470,195.963882 
	C91.532883,195.713043 94.824097,197.270767 95.372932,193.041458 
	C95.522781,191.886734 95.756943,190.742538 95.893196,189.586533 
	C96.218285,186.828339 98.344101,187.992645 99.768883,187.879395 
	C101.793152,187.718445 101.550179,189.064758 101.443413,190.541718 
	C100.739624,200.277893 92.239532,205.205078 83.334129,200.965759 
	C80.638763,199.682648 80.259018,197.257462 80.255775,194.663422 
	C80.247246,187.836395 80.094543,181.004364 80.312485,174.184357 
	C80.427559,170.583084 79.342476,169.142380 75.545502,169.170761 
	C57.563198,169.305191 39.578690,169.285904 21.596418,169.141327 
	C18.638996,169.117538 17.525629,170.162125 16.987423,172.931915 
	C15.910331,178.475021 14.547600,183.964340 13.230422,189.458511 
	C12.300826,193.336029 13.179875,195.519150 17.730009,195.461823 
	C28.551670,195.325439 39.376205,195.383011 50.199387,195.419205 
	C54.128983,195.432343 55.792862,193.984497 54.451611,189.892746 
	C53.678268,187.533508 53.218266,185.059326 52.779236,182.607864 
	C52.557461,181.369522 50.816574,179.511810 53.188560,178.962845 
	C54.998917,178.543869 57.763256,177.672165 58.212193,181.610107 
z"/>
<path fill="#0876B8" opacity="1.000000" stroke="none" 
	d="
M93.748093,170.060181 
	C93.653618,165.146133 93.521942,160.655792 93.584480,156.168167 
	C93.640366,152.157532 95.811234,150.015961 99.839607,149.997589 
	C107.660339,149.961914 115.482086,149.950714 123.302101,150.041779 
	C127.070595,150.085678 129.209747,152.148209 129.291229,155.938736 
	C129.391312,160.593430 129.195953,165.254318 129.287918,169.909378 
	C129.379929,174.567062 126.932304,176.536911 122.579643,176.719788 
	C122.081039,176.740723 121.553017,176.635376 121.087173,176.764160 
	C118.904900,177.367416 114.907722,175.320129 114.869080,178.194565 
	C114.839897,180.366104 119.097473,178.986221 121.423134,179.259216 
	C123.393280,179.490494 125.417854,179.410172 127.407127,179.286896 
	C129.739899,179.142334 130.077362,180.373535 130.159790,182.345901 
	C130.257706,184.689102 129.168243,184.972839 127.180794,185.079971 
	C122.951042,185.307953 117.306236,183.072571 114.895416,186.148697 
	C112.851814,188.756271 114.272667,194.122803 114.271393,198.268494 
	C114.270760,200.311798 114.112343,201.776291 111.399849,201.746216 
	C108.495018,201.714020 108.853264,199.886612 108.772110,198.047073 
	C108.590004,193.919556 110.441658,188.775467 108.069290,185.944199 
	C105.773140,183.203903 100.557793,185.257370 96.634262,185.082245 
	C94.561638,184.989731 93.669785,184.493088 93.719284,182.261398 
	C93.765656,180.170486 94.397339,179.217117 96.598839,179.283691 
	C99.923836,179.384201 103.254807,179.309921 106.582802,179.272064 
	C107.389603,179.262878 108.426308,179.224411 108.537239,178.219162 
	C108.698395,176.758759 107.438141,176.812454 106.487991,176.780594 
	C104.326653,176.708176 102.155983,176.820999 100.000748,176.680344 
	C96.178307,176.430832 93.683014,174.733185 93.748093,170.060181 
z"/>
<path fill="#0C78B9" opacity="1.000000" stroke="none" 
	d="
M61.207268,72.841713 
	C62.136784,55.039253 73.560616,44.104275 90.845276,44.034920 
	C95.011703,44.018200 99.186493,44.185585 103.341881,43.969376 
	C106.221321,43.819561 106.993187,44.870739 107.003372,47.657516 
	C107.013954,50.556393 106.440041,51.928520 103.165077,51.754032 
	C98.512978,51.506176 93.830956,51.585995 89.170967,51.765751 
	C77.293472,52.223923 68.878075,60.721458 68.925125,72.048584 
	C68.971970,83.327675 77.612991,91.821373 89.425423,92.095451 
	C94.089340,92.203667 98.765495,92.277161 103.421478,92.057289 
	C106.391350,91.917038 107.132324,93.101280 107.002457,95.829193 
	C106.891205,98.166084 107.049599,100.050034 103.704155,99.893364 
	C98.548859,99.651955 93.363785,100.029266 88.210350,99.768433 
	C73.512001,99.024506 63.616520,89.213745 61.207268,72.841713 
z"/>
<path fill="#0875B8" opacity="1.000000" stroke="none" 
	d="
M147.384796,164.769241 
	C145.584213,164.053757 142.858856,165.513412 142.677231,162.643280 
	C142.509918,159.999664 142.217987,157.014893 145.143280,155.597565 
	C146.921494,154.736023 148.399063,154.179718 148.019882,151.793213 
	C147.712952,149.861572 149.085373,149.653976 150.541183,149.746979 
	C151.801041,149.827484 153.668915,149.411438 153.573288,151.358002 
	C153.369186,155.512573 156.197754,154.713684 158.584122,154.747025 
	C160.416611,154.772629 162.252060,154.693619 164.081985,154.766586 
	C165.973328,154.842010 167.437134,154.545471 167.249374,152.148987 
	C167.084106,150.039474 168.401413,149.790543 170.101654,149.708450 
	C172.196365,149.607285 173.241531,150.268845 173.006287,152.510483 
	C172.865280,153.854080 173.384079,154.753403 174.935196,154.743362 
	C178.600632,154.719589 182.266312,154.734146 185.931793,154.716492 
	C187.442352,154.709213 188.003067,153.776596 187.863632,152.432220 
	C187.622116,150.103607 188.840973,149.644958 190.848190,149.705673 
	C192.615417,149.759109 193.888107,150.169388 193.611145,152.213745 
	C193.311768,154.423386 194.959717,154.890213 196.354141,155.764389 
	C199.039429,157.447815 199.037094,160.241913 198.776459,162.908524 
	C198.521683,165.515091 196.213730,164.255051 194.406982,164.788284 
	C190.624390,161.776764 186.567062,161.288818 182.113754,161.409103 
	C173.501297,161.641663 164.876938,161.560745 156.260193,161.435043 
	C152.922272,161.386337 150.037460,162.034958 147.384796,164.769241 
z"/>
<path fill="#0172B6" opacity="1.000000" stroke="none" 
	d="
M17.020136,155.298248 
	C14.194117,155.296066 11.858495,155.190338 9.536134,155.320755 
	C7.236693,155.449875 6.807069,154.314743 6.789182,152.306870 
	C6.769645,150.113831 7.962678,149.964905 9.633101,149.967499 
	C25.608997,149.992279 41.584949,149.984222 57.560883,149.978409 
	C59.260914,149.977783 60.822159,149.783722 60.874702,152.396667 
	C60.928776,155.085571 59.538063,155.322296 57.456108,155.316254 
	C44.142948,155.277588 30.829617,155.297516 17.020136,155.298248 
z"/>
<path fill="#EDF5FA" opacity="1.000000" stroke="none" 
	d="
M146.977112,165.147385 
	C147.988983,160.927063 150.552032,159.985611 154.525375,160.087402 
	C165.791611,160.376007 177.072144,160.309479 188.342361,160.113205 
	C191.617050,160.056168 193.343506,161.013489 193.774719,164.617767 
	C194.018204,164.910126 194.031387,165.353516 194.024475,165.575195 
	C178.617233,164.860565 163.216812,164.815033 147.402191,165.831146 
	C146.988113,165.871231 146.974609,165.388718 146.977112,165.147385 
z"/>
<path fill="#187EBD" opacity="1.000000" stroke="none" 
	d="
M86.327621,150.590179 
	C87.693626,154.557220 86.837326,156.612564 82.467369,156.044220 
	C80.508461,155.789459 78.487373,155.931137 76.498886,156.007446 
	C74.311829,156.091400 74.177841,154.732300 74.180824,153.091476 
	C74.183838,151.436218 74.389397,150.093597 76.528481,150.151947 
	C79.676949,150.237823 82.827057,150.263168 86.327621,150.590179 
z"/>
<path fill="#F0F0F0" opacity="1.000000" stroke="none" 
	d="
M168.672348,211.562653 
	C169.118225,210.100647 169.085052,208.642120 170.897598,210.276215 
	C171.907974,212.379913 171.358902,214.328491 171.194977,216.647110 
	C170.963043,217.068771 170.964737,216.968903 171.014282,216.962616 
	C170.602768,217.368805 170.067734,217.520752 169.086792,217.184525 
	C167.787247,215.324875 167.880539,213.631927 168.672348,211.562653 
z"/>
<path fill="#918F8D" opacity="1.000000" stroke="none" 
	d="
M168.559357,211.221954 
	C168.937012,212.846420 168.943329,214.480270 168.976868,216.525284 
	C169.176682,217.096359 169.349274,217.256271 169.281845,217.674942 
	C166.063919,216.042679 165.984436,213.782440 168.559357,211.221954 
z"/>
<path fill="#817E7C" opacity="1.000000" stroke="none" 
	d="
M8.909933,216.436371 
	C6.284349,215.842102 6.199730,215.245544 8.428152,211.201385 
	C8.603230,213.073624 8.742532,214.563278 8.909933,216.436371 
z"/>
<path fill="#918F8D" opacity="1.000000" stroke="none" 
	d="
M82.559525,215.929001 
	C81.734444,213.978058 82.229599,212.525360 83.730331,211.278961 
	C83.095978,212.867142 85.621132,214.848190 82.559525,215.929001 
z"/>
<path fill="#9B9998" opacity="1.000000" stroke="none" 
	d="
M35.084038,215.560532 
	C35.157494,214.005127 34.514679,212.631058 35.814629,211.693054 
	C37.536259,215.020508 37.503059,215.229904 35.084038,215.560532 
z"/>
<path fill="#969392" opacity="1.000000" stroke="none" 
	d="
M182.920502,215.522949 
	C180.961029,215.206818 180.961029,215.206818 181.634155,211.723038 
	C183.926010,212.194122 182.571396,214.057617 182.920502,215.522949 
z"/>
<path fill="#4D4946" opacity="1.000000" stroke="none" 
	d="
M113.004791,214.970306 
	C110.795441,213.262177 112.098763,211.702942 113.202087,209.447525 
	C114.267143,211.563660 115.283157,212.990936 113.032837,214.708725 
	C112.926720,215.012741 113.003281,215.008606 113.004791,214.970306 
z"/>
<path fill="#817E7C" opacity="1.000000" stroke="none" 
	d="
M67.694641,211.620270 
	C69.325569,213.482895 69.427719,215.191833 67.717773,217.014023 
	C66.291260,215.572784 67.364059,213.990234 66.891052,212.309937 
	C67.035187,211.823654 67.206154,211.693008 67.694641,211.620270 
z"/>
<path fill="#74716F" opacity="1.000000" stroke="none" 
	d="
M186.213165,212.641006 
	C186.855667,214.263062 186.514969,215.437683 185.733322,216.985611 
	C184.808273,215.084961 184.040100,213.632904 186.213165,212.641006 
z"/>
<path fill="#3E3937" opacity="1.000000" stroke="none" 
	d="
M66.169571,210.665665 
	C63.797283,212.739990 65.848709,215.513092 64.100113,218.502197 
	C64.288895,214.982407 62.561592,212.315292 65.481850,209.994720 
	C66.068764,210.168121 66.225357,210.303589 66.169571,210.665665 
z"/>
<path fill="#BAB9B8" opacity="1.000000" stroke="none" 
	d="
M197.979309,211.205383 
	C198.045685,211.737198 198.027802,211.975616 198.004181,212.572601 
	C197.826431,213.101593 197.654434,213.272003 197.125305,213.509705 
	C196.539413,213.497467 196.310623,213.417953 195.751007,213.188309 
	C194.958328,212.146729 194.657028,211.131943 195.455002,210.399368 
	C196.329605,209.596436 197.212463,210.092163 197.979309,211.205383 
z"/>
<path fill="#605C5A" opacity="1.000000" stroke="none" 
	d="
M139.969162,210.470673 
	C141.244400,209.925858 142.803207,209.216095 142.939743,210.779663 
	C143.037338,211.897461 140.367050,211.712311 140.394455,213.530502 
	C139.216766,212.832367 138.777328,211.962112 139.969162,210.470673 
z"/>
<path fill="#4D4946" opacity="1.000000" stroke="none" 
	d="
M196.758057,213.131729 
	C197.089569,212.909531 197.271423,212.890305 197.725845,212.901123 
	C198.303711,213.989273 198.608994,215.047363 198.891449,216.441193 
	C197.979767,217.489441 197.214706,216.922363 196.230621,216.271057 
	C195.952393,215.531433 195.875229,215.061905 195.788559,214.234497 
	C196.101822,213.766861 196.378265,213.586212 196.758057,213.131729 
z"/>
<path fill="#817E7C" opacity="1.000000" stroke="none" 
	d="
M127.951691,215.877014 
	C127.556068,215.024094 126.650940,214.443558 127.400719,213.970123 
	C128.471985,213.293716 129.065674,214.400467 129.578766,215.121719 
	C130.208374,216.006744 130.293076,217.020569 129.090591,217.448349 
	C128.129395,217.790283 128.317001,216.727402 127.951691,215.877014 
z"/>
<path fill="#4D4946" opacity="1.000000" stroke="none" 
	d="
M98.059998,216.479874 
	C97.915062,217.233871 97.725853,217.558365 97.259972,217.949753 
	C96.783836,215.439102 96.523987,212.858459 97.260399,209.981079 
	C98.562714,212.131592 97.742798,214.151978 98.059998,216.479874 
z"/>
<path fill="#605C5A" opacity="1.000000" stroke="none" 
	d="
M54.363869,213.897369 
	C54.227936,215.093109 54.093548,215.860962 53.800121,217.537506 
	C52.716557,214.503326 52.800911,212.407288 53.461040,210.157257 
	C54.717690,211.164566 54.236946,212.387238 54.363869,213.897369 
z"/>
<path fill="#817E7C" opacity="1.000000" stroke="none" 
	d="
M195.767426,216.082886 
	C196.780197,216.220261 197.530838,216.439560 198.575043,216.717896 
	C198.868607,216.776932 198.928207,217.271683 198.924103,217.519653 
	C197.986588,217.787216 197.053162,217.806808 195.771393,217.796021 
	C195.450439,217.232025 195.477859,216.698425 195.767426,216.082886 
z"/>
<path fill="#4D4946" opacity="1.000000" stroke="none" 
	d="
M171.381592,216.990005 
	C170.945557,215.210922 170.928070,213.353058 170.931732,211.026184 
	C173.046722,212.433640 172.050842,214.722122 171.381592,216.990005 
z"/>
<path fill="#605C5A" opacity="1.000000" stroke="none" 
	d="
M50.995018,212.142120 
	C51.000607,213.512405 51.000607,214.462967 51.000607,216.296280 
	C49.106842,214.105667 49.241043,212.114914 49.943050,210.938171 
	C50.812660,209.480484 50.721615,211.262970 50.995018,212.142120 
z"/>
<path fill="#605C5A" opacity="1.000000" stroke="none" 
	d="
M126.891609,211.045776 
	C126.526100,208.832855 127.844246,210.093262 128.644318,210.244888 
	C128.814972,210.277222 129.073944,211.188324 128.911667,211.393326 
	C128.300491,212.165329 127.851891,211.119980 126.891609,211.045776 
z"/>
<path fill="#F8F7F7" opacity="1.000000" stroke="none" 
	d="
M66.045395,211.117783 
	C65.957207,210.892288 65.935631,210.462433 65.923897,210.247559 
	C66.749825,210.046082 67.547981,210.134308 67.953041,211.378586 
	C67.819786,211.719803 67.627419,211.761459 67.149643,211.878693 
	C66.547806,211.837738 66.304260,211.634079 66.045395,211.117783 
z"/>
<path fill="#4D4946" opacity="1.000000" stroke="none" 
	d="
M169.383163,217.964905 
	C169.041840,217.933701 169.011932,217.435654 169.007996,217.186035 
	C169.461639,216.967438 169.919220,216.998444 170.720306,216.992889 
	C171.169327,218.013870 170.349762,217.879883 169.383163,217.964905 
z"/>
<path fill="#918F8D" opacity="1.000000" stroke="none" 
	d="
M196.534790,212.941589 
	C196.711716,213.226471 196.515701,213.524170 196.049362,213.849213 
	C195.779037,213.876587 195.458557,213.517776 195.439362,213.277969 
	C195.667389,213.010254 195.914612,212.982330 196.534790,212.941589 
z"/>
<path fill="#D3D2D1" opacity="1.000000" stroke="none" 
	d="
M155.089325,215.815979 
	C154.988815,215.185303 155.333771,214.965988 155.991516,215.682251 
	C155.874664,215.900391 155.650055,215.878448 155.089325,215.815979 
z"/>
<path fill="#FEFEFF" opacity="1.000000" stroke="none" 
	d="
M185.808685,170.986847 
	C187.118469,170.993729 187.950302,171.006607 188.782150,171.005981 
	C190.462601,171.004715 191.212875,171.893448 191.079498,173.509735 
	C190.945709,175.130768 189.667831,175.155624 188.497665,175.157364 
	C176.684601,175.174973 164.871475,175.179382 153.058411,175.160583 
	C151.710556,175.158432 150.198532,175.068909 150.208237,173.201721 
	C150.219070,171.116776 151.808365,170.991257 153.385300,170.991043 
	C164.033783,170.989685 174.682251,170.988174 185.808685,170.986847 
z"/>
<path fill="#E1EFF7" opacity="1.000000" stroke="none" 
	d="
M118.137161,160.768326 
	C115.790764,160.836624 114.084839,160.863205 114.132698,158.052719 
	C114.183327,155.080032 116.206535,155.667404 117.937401,155.558105 
	C118.102364,155.547684 118.270157,155.541138 118.433899,155.558578 
	C120.570602,155.786163 123.637291,154.707367 123.710281,158.314636 
	C123.792351,162.370712 120.409348,160.186539 118.137161,160.768326 
z"/>
<path fill="#E1EFF7" opacity="1.000000" stroke="none" 
	d="
M102.293449,160.766541 
	C100.073936,160.864166 98.980949,160.281509 99.151009,158.219025 
	C99.283279,156.614746 100.068642,155.789642 101.655388,155.712555 
	C102.820061,155.655945 103.986046,155.578522 105.150970,155.585953 
	C106.937553,155.597397 108.892937,155.151413 108.903923,158.128616 
	C108.914635,161.033920 107.075043,160.775620 105.219116,160.768814 
	C104.386116,160.765762 103.553101,160.768250 102.293449,160.766541 
z"/>
<path fill="#E1EFF7" opacity="1.000000" stroke="none" 
	d="
M107.496979,166.204193 
	C109.210976,167.849045 109.657578,170.230301 107.737801,170.645493 
	C105.133980,171.208618 101.742683,172.384003 99.572845,169.595047 
	C98.585403,168.325867 98.594948,166.272263 101.176888,166.134689 
	C103.136330,166.030273 105.106087,166.119583 107.496979,166.204193 
z"/>
<path fill="#E1EFF7" opacity="1.000000" stroke="none" 
	d="
M117.170975,171.001297 
	C114.324455,171.225281 114.032692,169.766876 114.200150,167.867645 
	C114.340645,166.274185 115.421227,166.104218 116.661476,166.102219 
	C116.993347,166.101669 117.367882,165.994415 117.650238,166.111389 
	C119.650978,166.940292 123.435005,164.172882 123.636871,168.145798 
	C123.855820,172.454681 119.890381,170.527863 117.170975,171.001297 
z"/>
</svg>