<?xml version="1.0" encoding="iso-8859-1"?>
<!-- Generator: Adobe Illustrator 16.0.0, SVG Export Plug-In . SVG Version: 6.00 Build 0)  -->
<!DOCTYPE svg PUBLIC "-//W3C//DTD SVG 1.1//EN" "http://www.w3.org/Graphics/SVG/1.1/DTD/svg11.dtd">
<svg version="1.1" id="Capa_1" xmlns="http://www.w3.org/2000/svg" xmlns:xlink="http://www.w3.org/1999/xlink" x="0px" y="0px"
	 width="98.607px" height="98.607px" viewBox="0 0 98.607 98.607" style="enable-background:new 0 0 98.607 98.607;"
	 xml:space="preserve">
<g>
	<g>
		<path d="M70.09,52.06c-0.113-1.818-0.871-3.221-2.625-3.749c-1.611-0.485-3.311-0.931-4.974-0.946
			c-5.364-0.056-10.619,0.771-15.716,2.504c-0.647,0.22-0.981,0.571-1.183,1.243c-1.351,4.507-2.747,8.999-4.13,13.493
			c-0.646,2.103-1.296,4.202-1.971,6.394c2.473,0,4.805-0.051,7.131,0.026c0.854,0.029,1.123-0.325,1.338-1.031
			c1.492-4.899,3.028-9.784,4.505-14.688c0.185-0.608,0.491-0.894,1.049-1.131c1.592-0.679,3.222-1.012,4.961-0.957
			c2.209,0.068,3.121,1.077,2.59,3.192c-0.586,2.338-1.271,4.651-1.959,6.965c-0.74,2.495-1.531,4.976-2.35,7.624
			c2.551,0,4.911-0.029,7.271,0.019c0.694,0.015,0.938-0.229,1.13-0.867c1.126-3.75,2.342-7.474,3.454-11.228
			C69.279,56.677,70.241,54.495,70.09,52.06z"/>
		<path d="M95.284,48.388c-1.188-0.425-2.456-0.703-3.71-0.85c-4.602-0.534-9.16-0.104-13.684,0.772
			c-0.303,0.06-0.697,0.365-0.797,0.646c-0.545,1.562-1.015,3.151-1.49,4.667c2.343-0.436,4.6-1.044,6.891-1.221
			c1.961-0.15,3.986,0.046,5.938,0.363c1.586,0.261,2.049,1.312,1.59,2.869c-0.826,2.816-1.68,5.624-2.541,8.431
			c-0.08,0.264-0.221,0.592-0.434,0.717c-2.199,1.271-4.545,1.858-7.064,1.239c-1.262-0.31-1.623-1.12-1.309-2.37
			c0.381-1.517,1.438-2.347,2.832-2.704c1.416-0.365,2.887-0.521,4.325-0.803c0.233-0.045,0.563-0.225,0.629-0.416
			c0.406-1.217,0.749-2.452,1.146-3.782c-3.944,0.143-7.725,0.438-11.301,1.868c-3.006,1.202-5.225,3.21-6.053,6.481
			c-0.812,3.207,0.53,5.408,3.743,6.302c2.821,0.784,5.646,0.608,8.476,0.171c4.508-0.697,8.64-2.299,12.154-5.288
			c0.239-0.203,0.506-0.462,0.594-0.746c1.08-3.457,2.219-6.9,3.158-10.396C99.141,51.486,97.98,49.351,95.284,48.388z"/>
		<path d="M22.786,57.583c-1.161-0.479-2.432-0.719-3.668-0.996c-1.747-0.393-3.533-0.641-5.262-1.1
			c-1.161-0.31-1.32-1.495-0.379-2.259c0.319-0.261,0.721-0.45,1.116-0.588c2.369-0.829,4.794-0.774,7.138-0.051
			c1.738,0.536,3.37,1.415,5.097,2.16c0.451-1.536,0.901-3.271,1.481-4.958c0.284-0.824,0.026-1.079-0.712-1.306
			c-4.67-1.436-9.403-1.634-14.143-0.531c-3.105,0.722-5.945,2.048-7.947,4.693c-1.647,2.179-1.855,5.015-0.46,6.732
			c0.992,1.223,2.416,1.785,3.897,2.117c2.191,0.49,4.409,0.865,6.608,1.327c0.597,0.126,1.402,0.32,1.273,1.085
			c-0.1,0.589-0.542,1.35-1.045,1.59c-0.887,0.424-1.926,0.64-2.917,0.712c-4.032,0.292-7.716-0.707-10.96-3.285
			C1.271,65.038,0.658,67.094,0,69.29c0.506,0.188,0.922,0.362,1.349,0.503c2.311,0.762,4.681,1.132,7.119,1.235
			c3.736,0.159,7.392-0.146,10.854-1.647c2.752-1.193,5.064-2.899,6.066-5.908C26.315,60.704,25.47,58.692,22.786,57.583z"/>
		<path d="M40.862,50.944c-3.1-0.161-6.113-0.315-9.196-0.477c0.045-0.077-0.004-0.025-0.018,0.032
			c-2.085,9.464-4.286,18.908-5.272,28.571c-2.202,15.334,3.574,0.881,4.254-0.601c3.659-7.956,6.453-16.242,9.262-24.521
			C40.25,52.892,40.578,51.825,40.862,50.944z"/>
		<path d="M34.733,43.562c3.883,1.427,8.438-0.994,9.97-4.691c0.377-0.855,0.595-1.781,0.6-2.747
			c0.014-2.469-1.452-4.54-3.777-5.332c-4.155-1.419-9.277,1.456-10.255,5.757c-0.009,0.036-0.008,0.071-0.016,0.107
			c-0.004,0.017-0.011,0.031-0.015,0.048C30.538,39.776,31.947,42.538,34.733,43.562z M35.713,40.902
			c-1.079-0.023-1.879-0.878-1.88-2.004c-0.001-0.15,0.02-0.303,0.05-0.45c0.297-1.148,1.396-2.145,2.512-2.143
			c1.077,0.002,1.943,0.938,1.924,2.079c-0.003,0.167-0.026,0.332-0.063,0.494C37.929,40.012,36.85,40.927,35.713,40.902z
			 M38.975,35.833c0.395,0,0.715,0.32,0.715,0.717c0,0.057-0.02,0.107-0.032,0.162c-0.118,0.234-0.354,0.4-0.636,0.4
			c-0.399,0-0.719-0.322-0.719-0.719c0-0.055,0.02-0.103,0.03-0.152C38.45,36.002,38.69,35.833,38.975,35.833z"/>
		<path d="M25.693,45.217c3.966,2.063,8.253,2.706,12.673,2.812c1.209-0.093,2.422-0.17,3.63-0.274
			c4.625-0.402,9.028-1.601,13.168-3.704c2.278-1.158,4.342-2.624,5.954-4.631c2.979-3.709,3.229-7.785,1.345-12.017
			c-0.666-1.498-0.527-2.673,0.537-3.87c0.719-0.808,1.373-1.688,1.963-2.593c0.413-0.637,1.036-1.391,0.407-2.154
			c-0.571-0.698-2.354-0.24-2.294-0.259c-2.018,0.522-3.688,1.677-5.346,2.872c-0.575,0.413-1.229,0.795-1.903,0.969
			c-1.022,0.266-1.663-0.382-1.319-1.388c0.441-1.29,1.113-2.498,1.657-3.759c0.281-0.651,0.57-1.318,0.718-2.008
			c0.131-0.629-0.945-1.041-1.647-0.963c-0.989,0.111-1.323,0.4-2.07,0.98c-1.651,1.283-3.11,2.813-4.667,4.225
			c-0.578,0.525-1.154,1.098-1.834,1.45c-0.384,0.201-1.117,0.188-1.438-0.062c-0.325-0.249-0.524-0.942-0.446-1.384
			c0.202-1.12,0.598-2.206,0.901-3.312c0.199-0.72,0.456-1.439,0.53-2.179c0.102-1.008-0.888-1.63-1.863-1.363
			c-0.985,0.27-1.609,0.748-2.271,1.447c-1.546,1.63-2.836,3.508-4.255,5.264c-0.653,0.81-1.272,1.695-2.085,2.316
			c-0.902,0.689-1.742,0.148-1.752-0.998c-0.004-0.92,0.086-1.843,0.044-2.76c-0.04-0.891-0.943-1.197-1.693-0.728
			c-0.569,0.354-0.784,0.826-1.104,1.395c-0.785,1.396-1.419,2.879-2.117,4.323c-0.289,0.587-0.524,1.217-0.906,1.736
			c-0.191,0.263-0.684,0.484-0.989,0.433c-0.288-0.05-0.676-0.454-0.732-0.753c-0.131-0.732-0.068-1.495-0.142-2.24
			c-0.031-0.336,0.042-0.782-0.284-0.988c-0.518-0.327-0.887,0.062-1.202,0.463c-0.451,0.576-0.844,1.457-1.209,2.281
			c-1.067,2.393-2.175,4.817-3.128,7.262c-0.848,2.173-1.182,4.451-0.782,6.769C20.354,41.368,22.646,43.629,25.693,45.217z
			 M26.254,32.953c2.277-2.942,5.412-4.583,8.911-5.499c7.396-1.91,13.488-0.057,15.658,1.127c2.122,1.155,3.862,2.699,4.362,5.184
			c0.625,3.1-0.838,5.431-3.047,7.366c-3.13,2.743-6.923,3.966-10.974,4.488c-3.378,0.438-6.727,0.236-9.909-1.012
			c-1.444-0.568-2.874-1.362-4.068-2.349C24.168,39.772,23.854,36.049,26.254,32.953z"/>
	</g>
</g>
<g>
</g>
<g>
</g>
<g>
</g>
<g>
</g>
<g>
</g>
<g>
</g>
<g>
</g>
<g>
</g>
<g>
</g>
<g>
</g>
<g>
</g>
<g>
</g>
<g>
</g>
<g>
</g>
<g>
</g>
</svg>
